<svg width="1920" height="1080" viewBox="0 0 1920 1080" fill="none" xmlns="http://www.w3.org/2000/svg">
<g clip-path="url(#clip0_1_2)">
<path d="M2062 1190H-72V-50H2062V1190ZM548.009 374.787C534.359 371.334 521.622 379.684 518.191 391.26C515.701 399.664 515.488 408.106 517.604 416.612C517.779 417.319 517.802 418.066 518.001 418.764C518.187 419.414 518.514 420.024 518.776 420.825C519.384 422.332 519.995 423.667 520.647 425.154C520.979 425.708 521.268 426.108 521.557 426.508C521.495 426.6 521.433 426.692 521.371 426.784C520.974 426.597 520.577 426.41 520.116 426.082C518.324 424.097 516.595 422.254 514.846 420.259C513.964 418.338 512.888 416.638 512.288 414.784C510.99 410.773 510.192 406.643 510.442 401.939C509.71 402.583 509.21 402.943 508.806 403.389C504.983 407.602 501.424 412.036 498.408 416.857C493.329 424.976 488.37 433.17 483.403 441.357C477.696 450.767 471.757 460.005 463.972 467.881C457.923 474 451.163 479.022 442.578 480.93C439.359 481.645 436.066 482.189 432.78 482.41C423.405 483.042 414.241 481.41 405.29 478.876C398.576 476.975 392.004 474.528 385.46 472.08C372.126 467.092 358.515 463.075 344.591 460.165C339.339 459.067 334.001 458.359 328.688 457.58C316.038 455.725 303.318 455.012 290.546 455.607C281.712 456.019 272.935 457.036 264.188 458.373C255.878 459.643 247.696 461.467 239.588 463.642C221.882 468.391 204.82 474.785 189.056 484.265C176.353 491.903 164.641 500.848 155.214 512.417C151.406 517.09 147.96 522.1 144.732 527.199C138.202 537.516 129.493 545.207 118.108 549.536C110.069 552.593 101.805 555.064 93.6328 557.769C84.2155 560.886 75.359 565.135 67.0479 570.576C59.5933 575.456 52.8048 581.094 47.0908 587.933C39.3232 597.229 33.6878 607.665 31.1016 619.593C30.4791 622.464 30.2189 625.414 29.7646 628.521C29.564 629.988 29.3913 631.263 29.1094 632.863C29.0004 634.972 29 636.756 29 638.539C29.2857 639.916 29.571 641.293 29.8076 642.855C30.3095 650.974 32.1436 658.592 35.2656 665.909C42.0776 681.874 53.3672 693.466 69.1758 700.559C72.8524 702.208 76.7418 703.382 80.8584 704.888C99.7767 705 118.37 705 136.963 705C138.464 704.473 139.955 703.919 141.467 703.425C149.013 700.957 156.028 697.451 162.415 692.714C162.526 692.632 162.586 692.479 162.699 692.315C161.617 689.931 159.707 688.152 157.966 686.276C151.508 679.321 143.793 674.112 135.231 670.101C128.006 666.715 120.326 664.62 112.808 662.061C108.776 660.688 104.68 659.329 100.914 657.38C90.9921 652.244 85.4528 644.018 84.7646 632.729C84.1173 622.109 87.5489 612.861 94.2803 604.746C99.633 598.293 106.223 593.371 113.511 589.366C118.732 586.497 123.91 583.509 129.557 581.511C132.318 580.534 135.059 579.37 138.287 579.691C138.715 581.305 139.195 582.913 139.566 584.546C141.69 593.893 146.28 601.77 153.385 608.217C155.45 610.091 157.436 612.097 159.184 614.266C162.115 617.903 162.199 622.195 159.789 626.229C158.238 628.824 155.953 630.686 153.671 632.555C152.418 633.581 151.012 634.435 149.837 635.539C148.45 636.842 147.032 638.195 145.991 639.768C143.537 643.476 143.658 647.435 145.526 651.362C147.376 655.251 149.853 658.747 152.644 662C157.012 667.093 161.312 672.26 165.939 677.11C171.183 682.607 176.819 687.7 183.391 691.649C189.857 695.536 196.887 697.531 204.361 697.808C212.756 698.118 221.161 698.324 229.559 698.258C233.287 698.229 237.034 697.562 240.729 696.936C246.519 695.954 248.946 692.658 247.116 686.082C245.872 681.609 242.994 678.141 239.268 675.406C234.134 671.638 228.319 670.557 222.092 671.027C219.379 671.232 216.64 671.525 213.938 671.362C207.553 670.978 202.466 667.915 198.419 663.07C197.228 661.644 196.453 659.948 196.227 658.064C195.946 655.732 196.562 654.719 198.871 654.285C202.127 653.673 205.427 653.293 208.694 652.736C217.339 651.264 225.946 649.623 234.131 646.316C241.917 643.171 249.143 639.148 255.081 633.063C262.015 625.958 266.521 617.557 268.367 607.803C271.375 591.908 267.676 577.547 258.339 564.474C255.746 560.844 252.705 557.679 249.343 554.589C248.605 553.955 247.938 553.45 247.271 552.944C247.332 552.81 247.393 552.675 247.455 552.54C248.246 552.844 249.037 553.149 249.93 553.563C250.16 553.849 250.252 554.088 250.424 554.188C253.114 555.755 255.876 557.21 258.494 558.889C260.392 560.106 262.281 561.436 263.869 563.021C275.301 574.435 279.775 588.393 278.661 604.331C278.518 606.379 278.304 608.422 278.113 610.579C280.587 609.747 282.925 608.924 285.286 608.173C298.421 603.996 311.902 603.353 325.531 604.254C334.535 604.849 343.355 606.52 351.984 609.104C356.711 610.52 361.307 612.336 365.472 615.083C370.281 618.255 374.303 622.191 377.237 627.183C381.11 633.77 383.662 640.91 386.08 648.122C389.288 657.689 391.899 667.46 395.795 676.791C398.439 683.125 401.215 689.393 405.514 694.835C409.108 699.385 413.484 702.875 419.341 704.904C436.055 705 452.436 705 468.816 705C470.455 703.494 472.099 701.902 472.187 699.539C472.251 697.803 472.068 695.996 471.637 694.312C468.979 683.949 459.389 678.791 451.298 678.395C449.166 678.29 447.022 678.451 444.886 678.396C443.198 678.354 441.48 678.336 439.835 678.008C436.838 677.411 434.727 675.604 434.156 672.529C433.619 669.638 433.077 666.685 433.103 663.764C433.204 652.082 435.628 640.926 441.363 630.636C446.294 621.789 452.81 614.347 461.373 608.885C467.332 605.084 473.458 601.545 479.536 597.935C496.897 587.623 511.785 574.473 524.606 558.894C535.297 545.904 544.133 531.732 551.668 516.73C556.431 507.249 561.012 497.676 565.67 488.142C568.437 482.478 571.79 477.199 576.031 472.525C582.5 465.399 590.53 461.369 600.116 460.367C605.973 459.755 611.866 459.261 617.646 458.194C628.433 456.203 637.783 451.255 645.456 443.33C646.936 441.802 648.214 440.07 649.513 438.377C650.696 436.834 651.4 435.055 651.862 432.837C652 430.611 652 428.68 652 426.75C650.418 423.371 647.612 421.181 644.541 419.353C637.612 415.225 631.827 409.749 626.5 403.817C619.108 395.585 610.404 389.424 600.054 385.506C591.294 382.19 582.282 380.153 572.932 379.803C569.04 379.657 565.13 379.849 561.235 380.028C559.944 380.088 558.942 379.617 557.929 379.028C554.794 377.208 551.539 375.68 548.009 374.787ZM1743.57 401.113C1720.56 401.113 1700.15 404.997 1682.35 412.762C1664.64 420.527 1650.76 431.37 1640.73 445.29C1630.78 459.116 1625.86 475.262 1625.95 493.728C1625.86 516.455 1633.2 534.4 1647.97 547.562C1662.84 560.631 1683.15 569.959 1708.91 575.546L1737.88 581.796C1748.68 584.163 1757.25 586.72 1763.6 589.466C1769.94 592.117 1774.49 595.148 1777.23 598.557C1780.07 601.871 1781.54 605.754 1781.63 610.204C1781.54 614.939 1780.03 619.154 1777.09 622.847C1774.15 626.54 1769.84 629.428 1764.16 631.512C1758.48 633.595 1751.43 634.637 1743 634.637C1732.96 634.637 1724.3 633.074 1717 629.949C1709.81 626.824 1704.22 622.231 1700.24 616.171C1696.27 610.11 1694.04 602.629 1693.57 593.728H1618.57C1618.66 618.065 1623.87 638.046 1634.19 653.671C1644.61 669.201 1659.19 680.706 1677.94 688.188C1696.79 695.669 1718.85 699.409 1744.13 699.409C1768.76 699.409 1789.83 695.953 1807.35 689.04C1824.96 682.127 1838.5 672.042 1847.97 658.784C1857.44 645.527 1862.22 629.333 1862.32 610.204C1862.22 599.125 1860.42 588.897 1856.92 579.522C1853.51 570.148 1848.16 561.719 1840.87 554.238C1833.58 546.663 1824.2 540.081 1812.74 534.494C1801.28 528.907 1787.51 524.409 1771.41 521L1747.54 515.887C1740.63 514.466 1734.67 512.856 1729.65 511.057C1724.63 509.257 1720.51 507.269 1717.29 505.091C1714.07 502.818 1711.7 500.309 1710.19 497.562C1708.77 494.722 1708.15 491.55 1708.34 488.046C1708.43 483.785 1709.71 479.996 1712.17 476.682C1714.64 473.367 1718.42 470.763 1723.54 468.869C1728.75 466.881 1735.42 465.887 1743.57 465.887C1756.35 465.887 1765.87 468.538 1772.12 473.841C1778.46 479.144 1782.01 486.53 1782.77 496H1858.34C1858.25 476.966 1853.51 460.346 1844.13 446.142C1834.85 431.843 1821.64 420.763 1804.5 412.903C1787.36 405.044 1767.05 401.113 1743.57 401.113ZM667.75 696H745.022V526.682H747.296L812.068 693.728H858.659L923.432 527.818H925.704V696H1002.98V405.091H904.682L837.068 569.863H833.659L766.046 405.091H667.75V696ZM1030.75 696H1115.97L1132.78 640.318H1228.71L1245.52 696H1330.75L1234.72 405.091H1126.77L1030.75 696ZM1358.77 696H1437.74V599.978H1465.08L1516.15 696H1601.95L1542.87 587.535C1557.96 580.293 1569.79 570 1578.37 556.653C1587.65 542.354 1592.29 524.787 1592.29 503.954C1592.29 483.31 1587.79 465.602 1578.79 450.829C1569.8 436.057 1557.2 424.741 1541.01 416.881C1524.82 409.021 1505.92 405.091 1484.33 405.091H1358.77V696ZM1210.87 581.228H1150.62L1179.61 485.204H1181.88L1210.87 581.228ZM1465.58 468.159C1474.86 468.159 1482.77 469.437 1489.31 471.994C1495.93 474.456 1501 478.339 1504.5 483.642C1508.1 488.85 1509.9 495.621 1509.9 503.954C1509.9 512.193 1508.1 518.87 1504.5 523.983C1501 529.097 1495.93 532.837 1489.31 535.204C1482.77 537.477 1474.86 538.613 1465.58 538.613H1437.74V468.159H1465.58Z" fill="black"/>
</g>
<defs>
<clipPath id="clip0_1_2">
<rect width="1920" height="1080" fill="white"/>
</clipPath>
</defs>
</svg>
